<svg width="657.9px" height="121.6px" xmlns="http://www.w3.org/2000/svg" viewBox="-78.96251220703124 14.199996948242188 657.9250244140625 121.60000610351562" style="background: rgba(0, 0, 0, 0)" preserveAspectRatio="xMidYMid"><defs><linearGradient id="editing-gradient-gradient" x1="0" x2="1" y1="0.5" y2="0.5" gradientUnits="objectBoundingBox"><stop offset="0" stop-color="#ff00ff"></stop><stop offset="1" stop-color="#00ffff"></stop></linearGradient></defs><g><g transform="matrix(1.4,0,0,1.3,-55.9,141.6)"><path d="M 2.8 -31.7 L -11.2 -31.7 L -3.1 -74 L 11 -74 L 2.8 -31.7 Z M 58.5 -30.5 L 58.5 -30.5 L 58.5 -30.5 Q 50.8 -30.5 50.8 -36.5 L 50.8 -36.5 L 50.8 -36.5 Q 50.8 -39.1 51.9 -44.2 L 51.9 -44.2 L 51.9 -44.2 Q 53 -49.3 53.4 -51.3 L 53.4 -51.3 L 53.4 -51.3 Q 54.3 -56 54.3 -57.5 L 54.3 -57.5 L 54.3 -57.5 Q 54.3 -60.7 51.9 -60.7 L 51.9 -60.7 L 51.9 -60.7 Q 50.3 -60.7 48.7 -58.5 L 48.7 -58.5 L 48.7 -58.5 Q 47.2 -56.3 46.5 -51.9 L 46.5 -51.9 L 42.5 -31.7 L 30 -30.5 L 33.5 -47.9 L 33.5 -47.9 Q 34.1 -50.8 34.6 -54 L 34.6 -54 L 34.6 -54 Q 35.1 -57.3 35.1 -57.8 L 35.1 -57.8 L 35.1 -57.8 Q 35.1 -60.7 32.9 -60.7 L 32.9 -60.7 L 32.9 -60.7 Q 31.4 -60.7 29.8 -58.6 L 29.8 -58.6 L 29.8 -58.6 Q 28.2 -56.4 27.3 -51.9 L 27.3 -51.9 L 23.4 -31.7 L 10.8 -30.5 L 17.6 -64.4 L 28 -65.7 L 26.9 -59.2 L 26.9 -59.2 Q 28.6 -62.7 31.6 -64.2 L 31.6 -64.2 L 31.6 -64.2 Q 34.7 -65.7 39.5 -65.7 L 39.5 -65.7 L 39.5 -65.7 Q 42.3 -65.7 44.1 -64.3 L 44.1 -64.3 L 44.1 -64.3 Q 45.8 -63 46.4 -60.8 L 46.4 -60.8 L 46.4 -60.8 Q 47.5 -63 50.3 -64.4 L 50.3 -64.4 L 50.3 -64.4 Q 53.1 -65.7 56.5 -65.7 L 56.5 -65.7 L 56.5 -65.7 Q 59.9 -65.7 61.6 -64.9 L 61.6 -64.9 L 61.6 -64.9 Q 63.3 -64.2 64.3 -63 L 64.3 -63 L 64.3 -63 Q 66.1 -60.7 66.1 -56.6 L 66.1 -56.6 L 66.1 -56.6 Q 66.1 -52.6 64.3 -44.2 L 64.3 -44.2 L 64.3 -44.2 Q 63.4 -40.1 63.4 -38.6 L 63.4 -38.6 L 63.4 -38.6 Q 63.4 -37.1 64.3 -36.2 L 64.3 -36.2 L 64.3 -36.2 Q 65.2 -35.3 66.5 -35.2 L 66.5 -35.2 L 66.5 -35.2 Q 65.8 -33 63.6 -31.7 L 63.6 -31.7 L 63.6 -31.7 Q 61.4 -30.5 58.5 -30.5 Z M 74.2 -33.7 L 74.2 -33.7 L 74.2 -33.7 Q 72.7 -35.3 72 -38 L 72 -38 L 72 -38 Q 71.3 -40.6 71.3 -44.9 L 71.3 -44.9 L 71.3 -44.9 Q 71.3 -49.2 72.8 -53.1 L 72.8 -53.1 L 72.8 -53.1 Q 74.3 -57 76.9 -59.8 L 76.9 -59.8 L 76.9 -59.8 Q 82.5 -65.7 91.5 -65.7 L 91.5 -65.7 L 91.5 -65.7 Q 94.8 -65.7 97.2 -64.6 L 97.2 -64.6 L 108.1 -65.7 L 103.4 -40.7 L 103.4 -40.7 Q 103.2 -39.9 103.2 -38.5 L 103.2 -38.5 L 103.2 -38.5 Q 103.2 -37.1 104.1 -36.2 L 104.1 -36.2 L 104.1 -36.2 Q 104.9 -35.3 106.2 -35.2 L 106.2 -35.2 L 106.2 -35.2 Q 105.6 -33 103.2 -31.7 L 103.2 -31.7 L 103.2 -31.7 Q 100.9 -30.5 98.3 -30.5 L 98.3 -30.5 L 98.3 -30.5 Q 95.6 -30.5 93.9 -31.5 L 93.9 -31.5 L 93.9 -31.5 Q 92.1 -32.4 91.6 -34.1 L 91.6 -34.1 L 91.6 -34.1 Q 90.6 -32.5 88.4 -31.5 L 88.4 -31.5 L 88.4 -31.5 Q 86.2 -30.5 83.3 -30.5 L 83.3 -30.5 L 83.3 -30.5 Q 80.4 -30.5 78 -31.2 L 78 -31.2 L 78 -31.2 Q 75.7 -32 74.2 -33.7 Z M 87.7 -59.6 L 87.7 -59.6 L 87.7 -59.6 Q 86.9 -58.5 86.3 -56.5 L 86.3 -56.5 L 86.3 -56.5 Q 85.7 -54.6 84.6 -49.4 L 84.6 -49.4 L 84.6 -49.4 Q 83.5 -44.2 83.5 -40.4 L 83.5 -40.4 L 83.5 -40.4 Q 83.5 -36.7 84.1 -35.6 L 84.1 -35.6 L 84.1 -35.6 Q 84.7 -34.6 85.7 -34.6 L 85.7 -34.6 L 85.7 -34.6 Q 87.8 -34.6 89.3 -36.5 L 89.3 -36.5 L 89.3 -36.5 Q 90.8 -38.5 91.3 -41.9 L 91.3 -41.9 L 94.7 -60.7 L 94.7 -60.7 Q 93.4 -61.8 91.8 -61.8 L 91.8 -61.8 L 91.8 -61.8 Q 90.3 -61.8 89.3 -61.3 L 89.3 -61.3 L 89.3 -61.3 Q 88.4 -60.8 87.7 -59.6 Z M 115.9 -58.5 L 115.9 -58.5 L 115.9 -58.5 Q 118 -61.6 121.3 -63.6 L 121.3 -63.6 L 121.3 -63.6 Q 124.6 -65.7 128.7 -65.7 L 128.7 -65.7 L 128.7 -65.7 Q 132.7 -65.7 134.6 -64.4 L 134.6 -64.4 L 147.2 -65.7 L 142.8 -41.1 L 142.8 -41.1 Q 140.6 -28.5 135.8 -23.6 L 135.8 -23.6 L 135.8 -23.6 Q 131.3 -18.9 122.5 -18.9 L 122.5 -18.9 L 122.5 -18.9 Q 115.7 -18.9 111.9 -21.1 L 111.9 -21.1 L 111.9 -21.1 Q 108.1 -23.2 108.1 -26.7 L 108.1 -26.7 L 108.1 -26.7 Q 108.1 -29.3 110 -30.8 L 110 -30.8 L 110 -30.8 Q 112 -32.3 115.1 -32.3 L 115.1 -32.3 L 115.1 -32.3 Q 117.8 -32.3 119.8 -31.1 L 119.8 -31.1 L 119.8 -31.1 Q 121 -30.5 121.6 -29.6 L 121.6 -29.6 L 121.6 -29.6 Q 120.1 -28.3 120.1 -26.2 L 120.1 -26.2 L 120.1 -26.2 Q 120.1 -23.4 122.7 -23.4 L 122.7 -23.4 L 122.7 -23.4 Q 127 -23.4 129.4 -33.5 L 129.4 -33.5 L 129.4 -33.5 Q 130.1 -36.3 130.7 -39 L 130.7 -39 L 130.7 -39 Q 127.8 -35.5 121.3 -35.5 L 121.3 -35.5 L 121.3 -35.5 Q 116.8 -35.5 114.1 -37.7 L 114.1 -37.7 L 114.1 -37.7 Q 111.5 -39.9 111.5 -45 L 111.5 -45 L 111.5 -45 Q 111.5 -48.2 112.6 -51.8 L 112.6 -51.8 L 112.6 -51.8 Q 113.7 -55.4 115.9 -58.5 Z M 124.2 -44.8 L 124.2 -44.8 L 124.2 -44.8 Q 124.2 -40.4 126.4 -40.4 L 126.4 -40.4 L 126.4 -40.4 Q 128 -40.4 129.4 -42.1 L 129.4 -42.1 L 129.4 -42.1 Q 130.6 -43.5 131 -45.4 L 131 -45.4 L 134.3 -61.9 L 134.3 -61.9 Q 134 -62 133.7 -62.1 L 133.7 -62.1 L 133.7 -62.1 Q 133 -62.3 132.2 -62.3 L 132.2 -62.3 L 132.2 -62.3 Q 128.3 -62.3 126 -55.9 L 126 -55.9 L 126 -55.9 Q 124.2 -50.9 124.2 -44.8 Z M 175.6 -42.6 L 175.6 -42.6 L 175.6 -42.6 Q 177.2 -41.5 177.2 -39.1 L 177.2 -39.1 L 177.2 -39.1 Q 177.2 -36.7 176 -35.1 L 176 -35.1 L 176 -35.1 Q 174.7 -33.6 172.8 -32.6 L 172.8 -32.6 L 172.8 -32.6 Q 168.7 -30.5 164.2 -30.5 L 164.2 -30.5 L 164.2 -30.5 Q 159.8 -30.5 157.2 -31.4 L 157.2 -31.4 L 157.2 -31.4 Q 154.6 -32.4 152.9 -34.2 L 152.9 -34.2 L 152.9 -34.2 Q 149.5 -37.6 149.5 -43.8 L 149.5 -43.8 L 149.5 -43.8 Q 149.5 -53.4 154.8 -59.3 L 154.8 -59.3 L 154.8 -59.3 Q 160.4 -65.7 170.2 -65.7 L 170.2 -65.7 L 170.2 -65.7 Q 176.3 -65.7 179.3 -63.1 L 179.3 -63.1 L 179.3 -63.1 Q 181.5 -61.2 181.5 -58 L 181.5 -58 L 181.5 -58 Q 181.5 -46.8 162.1 -46.8 L 162.1 -46.8 L 162.1 -46.8 Q 161.8 -45.1 161.8 -43.7 L 161.8 -43.7 L 161.8 -43.7 Q 161.8 -40.8 163.1 -39.6 L 163.1 -39.6 L 163.1 -39.6 Q 164.4 -38.5 166.9 -38.5 L 166.9 -38.5 L 166.9 -38.5 Q 169.3 -38.5 171.9 -39.6 L 171.9 -39.6 L 171.9 -39.6 Q 174.5 -40.8 175.6 -42.6 Z M 162.5 -49.5 L 162.5 -49.5 L 162.5 -49.5 Q 167.1 -49.5 169.7 -52.4 L 169.7 -52.4 L 169.7 -52.4 Q 172.3 -55 172.3 -59.3 L 172.3 -59.3 L 172.3 -59.3 Q 172.3 -60.8 171.8 -61.6 L 171.8 -61.6 L 171.8 -61.6 Q 171.2 -62.4 170.1 -62.4 L 170.1 -62.4 L 170.1 -62.4 Q 169 -62.4 168.1 -62 L 168.1 -62 L 168.1 -62 Q 167.2 -61.6 166.2 -60.2 L 166.2 -60.2 L 166.2 -60.2 Q 163.9 -57 162.5 -49.5 Z M 202.8 -54.2 L 202.8 -54.2 L 202.8 -54.2 Q 203.7 -56.6 203.7 -58.6 L 203.7 -58.6 L 203.7 -58.6 Q 203.7 -62.4 200.7 -62.4 L 200.7 -62.4 L 200.7 -62.4 Q 199.1 -62.4 197.7 -61 L 197.7 -61 L 197.7 -61 Q 196.4 -59.5 196.4 -57.7 L 196.4 -57.7 L 196.4 -57.7 Q 196.4 -56.4 197.5 -55.4 L 197.5 -55.4 L 197.5 -55.4 Q 198.9 -54 202.7 -51.7 L 202.7 -51.7 L 202.7 -51.7 Q 206.5 -49.4 207.9 -47.5 L 207.9 -47.5 L 207.9 -47.5 Q 209.4 -45.6 209.4 -43 L 209.4 -43 L 209.4 -43 Q 209.4 -40.4 208.1 -38.1 L 208.1 -38.1 L 208.1 -38.1 Q 206.9 -35.7 204.6 -34 L 204.6 -34 L 204.6 -34 Q 199.8 -30.5 192.1 -30.5 L 192.1 -30.5 L 192.1 -30.5 Q 188 -30.5 184.8 -32.6 L 184.8 -32.6 L 184.8 -32.6 Q 181.6 -34.8 181.6 -37.2 L 181.6 -37.2 L 181.6 -37.2 Q 181.6 -39.7 183.4 -41.2 L 183.4 -41.2 L 183.4 -41.2 Q 185.2 -42.7 187.9 -42.7 L 187.9 -42.7 L 187.9 -42.7 Q 190.6 -42.7 192.3 -41.7 L 192.3 -41.7 L 192.3 -41.7 Q 191.4 -39.6 191.4 -38.1 L 191.4 -38.1 L 191.4 -38.1 Q 191.4 -33.9 195 -33.9 L 195 -33.9 L 195 -33.9 Q 196.6 -33.9 197.6 -34.9 L 197.6 -34.9 L 197.6 -34.9 Q 198.6 -35.8 198.6 -37.5 L 198.6 -37.5 L 198.6 -37.5 Q 198.6 -40.8 193.1 -44.2 L 193.1 -44.2 L 193.1 -44.2 Q 188.6 -47.2 187.6 -48.3 L 187.6 -48.3 L 187.6 -48.3 Q 185.9 -50.4 185.9 -52.9 L 185.9 -52.9 L 185.9 -52.9 Q 185.9 -55.5 187.1 -57.9 L 187.1 -57.9 L 187.1 -57.9 Q 188.3 -60.4 190.5 -62.1 L 190.5 -62.1 L 190.5 -62.1 Q 195.2 -65.7 203.3 -65.7 L 203.3 -65.7 L 203.3 -65.7 Q 207.5 -65.7 210 -64 L 210 -64 L 210 -64 Q 212.4 -62.3 212.4 -59.5 L 212.4 -59.5 L 212.4 -59.5 Q 212.4 -56.7 210.7 -55.1 L 210.7 -55.1 L 210.7 -55.1 Q 209 -53.5 206 -53.5 L 206 -53.5 L 206 -53.5 Q 203.9 -53.5 202.8 -54.2 Z M 253.9 -52.4 L 266.8 -53.5 L 266.8 -53.5 Q 262.2 -43.4 262.2 -31.7 L 262.2 -31.7 L 262.2 -31.7 Q 260.5 -30.5 258 -30.5 L 258 -30.5 L 258 -30.5 Q 255.4 -30.5 253.8 -31.6 L 253.8 -31.6 L 253.8 -31.6 Q 252.2 -32.8 251.9 -34 L 251.9 -34 L 251.9 -34 Q 250.3 -32.4 247.7 -31.4 L 247.7 -31.4 L 247.7 -31.4 Q 245.1 -30.5 242.4 -30.5 L 242.4 -30.5 L 242.4 -30.5 Q 239.6 -30.5 237.2 -31.4 L 237.2 -31.4 L 237.2 -31.4 Q 234.8 -32.3 233 -34.2 L 233 -34.2 L 233 -34.2 Q 228.9 -38.6 228.9 -46.8 L 228.9 -46.8 L 228.9 -46.8 Q 228.9 -59.6 235.7 -67.3 L 235.7 -67.3 L 235.7 -67.3 Q 242.8 -75.3 255.3 -75.3 L 255.3 -75.3 L 255.3 -75.3 Q 263.9 -75.3 267 -70.8 L 267 -70.8 L 267 -70.8 Q 267.9 -69.4 267.9 -67.7 L 267.9 -67.7 L 267.9 -67.7 Q 267.9 -66 267.2 -64.5 L 267.2 -64.5 L 267.2 -64.5 Q 266.5 -63.1 265.3 -62 L 265.3 -62 L 265.3 -62 Q 262.5 -59.4 259.2 -59.4 L 259.2 -59.4 L 259.2 -59.4 Q 257.8 -59.4 256.5 -59.8 L 256.5 -59.8 L 256.5 -59.8 Q 256.8 -61.8 256.8 -64 L 256.8 -64 L 256.8 -64 Q 256.8 -66.2 256.6 -67.3 L 256.6 -67.3 L 256.6 -67.3 Q 256.5 -68.3 256.1 -69.1 L 256.1 -69.1 L 256.1 -69.1 Q 255.3 -70.8 253.4 -70.8 L 253.4 -70.8 L 253.4 -70.8 Q 251.6 -70.8 249.6 -68.9 L 249.6 -68.9 L 249.6 -68.9 Q 247.6 -66.9 246 -63.7 L 246 -63.7 L 246 -63.7 Q 242.5 -56.6 242.5 -47.9 L 242.5 -47.9 L 242.5 -47.9 Q 242.5 -44 244 -41.2 L 244 -41.2 L 244 -41.2 Q 245.7 -38.1 248.6 -38.1 L 248.6 -38.1 L 248.6 -38.1 Q 249.6 -38.1 250.5 -38.6 L 250.5 -38.6 L 250.5 -38.6 Q 251.5 -39.1 251.9 -39.5 L 251.9 -39.5 L 253.9 -52.4 Z M 272.8 -33.7 L 272.8 -33.7 L 272.8 -33.7 Q 271.3 -35.3 270.6 -38 L 270.6 -38 L 270.6 -38 Q 269.9 -40.6 269.9 -44.9 L 269.9 -44.9 L 269.9 -44.9 Q 269.9 -49.2 271.4 -53.1 L 271.4 -53.1 L 271.4 -53.1 Q 272.9 -57 275.5 -59.8 L 275.5 -59.8 L 275.5 -59.8 Q 281 -65.7 290.1 -65.7 L 290.1 -65.7 L 290.1 -65.7 Q 293.4 -65.7 295.8 -64.6 L 295.8 -64.6 L 306.7 -65.7 L 302 -40.7 L 302 -40.7 Q 301.8 -39.9 301.8 -38.5 L 301.8 -38.5 L 301.8 -38.5 Q 301.8 -37.1 302.6 -36.2 L 302.6 -36.2 L 302.6 -36.2 Q 303.5 -35.3 304.8 -35.2 L 304.8 -35.2 L 304.8 -35.2 Q 304.1 -33 301.8 -31.7 L 301.8 -31.7 L 301.8 -31.7 Q 299.5 -30.5 296.9 -30.5 L 296.9 -30.5 L 296.9 -30.5 Q 294.2 -30.5 292.5 -31.5 L 292.5 -31.5 L 292.5 -31.5 Q 290.7 -32.4 290.2 -34.1 L 290.2 -34.1 L 290.2 -34.1 Q 289.2 -32.5 287 -31.5 L 287 -31.5 L 287 -31.5 Q 284.8 -30.5 281.9 -30.5 L 281.9 -30.5 L 281.9 -30.5 Q 279 -30.5 276.6 -31.2 L 276.6 -31.2 L 276.6 -31.2 Q 274.3 -32 272.8 -33.7 Z M 286.3 -59.6 L 286.3 -59.6 L 286.3 -59.6 Q 285.5 -58.5 284.9 -56.5 L 284.9 -56.5 L 284.9 -56.5 Q 284.2 -54.6 283.2 -49.4 L 283.2 -49.4 L 283.2 -49.4 Q 282.1 -44.2 282.1 -40.4 L 282.1 -40.4 L 282.1 -40.4 Q 282.1 -36.7 282.7 -35.6 L 282.7 -35.6 L 282.7 -35.6 Q 283.3 -34.6 284.3 -34.6 L 284.3 -34.6 L 284.3 -34.6 Q 286.4 -34.6 287.9 -36.5 L 287.9 -36.5 L 287.9 -36.5 Q 289.4 -38.5 289.9 -41.9 L 289.9 -41.9 L 293.3 -60.7 L 293.3 -60.7 Q 292 -61.8 290.4 -61.8 L 290.4 -61.8 L 290.4 -61.8 Q 288.9 -61.8 287.9 -61.3 L 287.9 -61.3 L 287.9 -61.3 Q 287 -60.8 286.3 -59.6 Z M 325.5 -35.3 L 325.5 -35.3 L 325.5 -35.3 Q 323.5 -30.5 317.1 -30.5 L 317.1 -30.5 L 317.1 -30.5 Q 313.9 -30.5 311.9 -32.7 L 311.9 -32.7 L 311.9 -32.7 Q 310.2 -34.6 310.2 -36.7 L 310.2 -36.7 L 310.2 -36.7 Q 310.2 -41.5 312.5 -52 L 312.5 -52 L 317.1 -76.5 L 330.1 -77.8 L 323.9 -45.4 L 323.9 -45.4 Q 322.8 -40.7 322.8 -39 L 322.8 -39 L 322.8 -39 Q 322.8 -35.4 325.5 -35.3 Z M 346.2 -35.3 L 346.2 -35.3 L 346.2 -35.3 Q 344.2 -30.5 337.9 -30.5 L 337.9 -30.5 L 337.9 -30.5 Q 334.7 -30.5 332.6 -32.7 L 332.6 -32.7 L 332.6 -32.7 Q 331 -34.6 331 -36.7 L 331 -36.7 L 331 -36.7 Q 331 -41.5 333.2 -52 L 333.2 -52 L 337.9 -76.5 L 350.9 -77.8 L 344.7 -45.4 L 344.7 -45.4 Q 343.6 -40.7 343.6 -39 L 343.6 -39 L 343.6 -39 Q 343.6 -35.4 346.2 -35.3 Z M 377.6 -42.6 L 377.6 -42.6 L 377.6 -42.6 Q 379.2 -41.5 379.2 -39.1 L 379.2 -39.1 L 379.2 -39.1 Q 379.2 -36.7 377.9 -35.1 L 377.9 -35.1 L 377.9 -35.1 Q 376.7 -33.6 374.7 -32.6 L 374.7 -32.6 L 374.7 -32.6 Q 370.6 -30.5 366.2 -30.5 L 366.2 -30.5 L 366.2 -30.5 Q 361.8 -30.5 359.2 -31.4 L 359.2 -31.4 L 359.2 -31.4 Q 356.6 -32.4 354.9 -34.2 L 354.9 -34.2 L 354.9 -34.2 Q 351.5 -37.6 351.5 -43.8 L 351.5 -43.8 L 351.5 -43.8 Q 351.5 -53.4 356.8 -59.3 L 356.8 -59.3 L 356.8 -59.3 Q 362.4 -65.7 372.2 -65.7 L 372.2 -65.7 L 372.2 -65.7 Q 378.3 -65.7 381.3 -63.1 L 381.3 -63.1 L 381.3 -63.1 Q 383.5 -61.2 383.5 -58 L 383.5 -58 L 383.5 -58 Q 383.5 -46.8 364.1 -46.8 L 364.1 -46.8 L 364.1 -46.8 Q 363.8 -45.1 363.8 -43.7 L 363.8 -43.7 L 363.8 -43.7 Q 363.8 -40.8 365.1 -39.6 L 365.1 -39.6 L 365.1 -39.6 Q 366.4 -38.5 368.9 -38.5 L 368.9 -38.5 L 368.9 -38.5 Q 371.3 -38.5 373.9 -39.6 L 373.9 -39.6 L 373.9 -39.6 Q 376.5 -40.8 377.6 -42.6 Z M 364.5 -49.5 L 364.5 -49.5 L 364.5 -49.5 Q 369 -49.5 371.7 -52.4 L 371.7 -52.4 L 371.7 -52.4 Q 374.3 -55 374.3 -59.3 L 374.3 -59.3 L 374.3 -59.3 Q 374.3 -60.8 373.7 -61.6 L 373.7 -61.6 L 373.7 -61.6 Q 373.2 -62.4 372.1 -62.4 L 372.1 -62.4 L 372.1 -62.4 Q 371 -62.4 370.1 -62 L 370.1 -62 L 370.1 -62 Q 369.2 -61.6 368.2 -60.2 L 368.2 -60.2 L 368.2 -60.2 Q 365.8 -57 364.5 -49.5 Z M 405.7 -49.7 L 405.7 -49.7 L 405.7 -49.7 Q 408 -53.8 408 -58 L 408 -58 L 408 -58 Q 408 -60.7 406 -60.7 L 406 -60.7 L 406 -60.7 Q 404.5 -60.7 402.9 -58.1 L 402.9 -58.1 L 402.9 -58.1 Q 401.2 -55.5 400.7 -52.1 L 400.7 -52.1 L 397.4 -31.7 L 384.1 -30.5 L 390.7 -64.4 L 401.2 -65.7 L 400.1 -59.2 L 400.1 -59.2 Q 403.2 -65.7 410.3 -65.7 L 410.3 -65.7 L 410.3 -65.7 Q 414 -65.7 416 -63.7 L 416 -63.7 L 416 -63.7 Q 418 -61.8 418 -57.9 L 418 -57.9 L 418 -57.9 Q 418 -54 415.4 -51.5 L 415.4 -51.5 L 415.4 -51.5 Q 412.8 -49 408.4 -49 L 408.4 -49 L 408.4 -49 Q 406.5 -49 405.7 -49.7 Z M 439.4 -39 L 439.4 -39 L 439.4 -39 Q 436.1 -35.5 430 -35.5 L 430 -35.5 L 430 -35.5 Q 422.4 -35.5 420.8 -41.1 L 420.8 -41.1 L 420.8 -41.1 Q 420.2 -42.8 420.2 -44.6 L 420.2 -44.6 L 420.2 -44.6 Q 420.2 -46.5 420.6 -48.4 L 420.6 -48.4 L 423.6 -64.4 L 436.6 -65.7 L 433.1 -47 L 433.1 -47 Q 433 -46.2 432.8 -45.3 L 432.8 -45.3 L 432.8 -45.3 Q 432.6 -44.4 432.6 -43.5 L 432.6 -43.5 L 432.6 -43.5 Q 432.6 -42.6 432.9 -42 L 432.9 -42 L 432.9 -42 Q 433.2 -41.3 433.7 -41 L 433.7 -41 L 433.7 -41 Q 434.5 -40.4 435.8 -40.4 L 435.8 -40.4 L 435.8 -40.4 Q 437.2 -40.4 438.4 -42.1 L 438.4 -42.1 L 438.4 -42.1 Q 439.6 -43.8 440.1 -46.7 L 440.1 -46.7 L 443.7 -64.4 L 456.3 -65.7 L 451.5 -40.5 L 451.5 -40.5 Q 449.1 -28.2 444.2 -23.4 L 444.2 -23.4 L 444.2 -23.4 Q 441.7 -20.9 438.5 -19.9 L 438.5 -19.9 L 438.5 -19.9 Q 435.3 -18.9 431.1 -18.9 L 431.1 -18.9 L 431.1 -18.9 Q 424.4 -18.9 420.6 -21 L 420.6 -21 L 420.6 -21 Q 416.7 -23.1 416.7 -26.6 L 416.7 -26.6 L 416.7 -26.6 Q 416.7 -29.2 418.7 -30.8 L 418.7 -30.8 L 418.7 -30.8 Q 420.7 -32.3 423.8 -32.3 L 423.8 -32.3 L 423.8 -32.3 Q 426.5 -32.3 428.5 -31.1 L 428.5 -31.1 L 428.5 -31.1 Q 429.7 -30.4 430.3 -29.5 L 430.3 -29.5 L 430.3 -29.5 Q 428.8 -28.2 428.8 -26.1 L 428.8 -26.1 L 428.8 -26.1 Q 428.8 -23.3 431.4 -23.3 L 431.4 -23.3 L 431.4 -23.3 Q 435.6 -23.3 438 -33 L 438 -33 L 438 -33 Q 438.7 -35.9 439.4 -39 Z" fill="url(#editing-gradient-gradient)"></path></g></g><style>text {
  font-size: 64px;
  font-family: Arial Black;
  dominant-baseline: central;
  text-anchor: middle;
}</style></svg>